<svg xmlns="http://www.w3.org/2000/svg" width="20" height="16" fill="none" viewBox="0 0 20 16"><path fill="#fff" d="M11.0573 1.05734C11.3073 0.807382 11.6464 0.666962 12 0.666962C12.3535 0.666962 12.6926 0.807382 12.9426 1.05734L18.9426 7.05734C19.1926 7.30738 19.333 7.64646 19.333 8.00001C19.333 8.35356 19.1926 8.69264 18.9426 8.94268L12.9426 14.9427C12.6912 15.1856 12.3544 15.3199 12.0048 15.3169C11.6552 15.3139 11.3207 15.1736 11.0735 14.9264C10.8263 14.6792 10.6861 14.3448 10.6831 13.9952C10.68 13.6456 10.8144 13.3088 11.0573 13.0573L14.6666 9.33334H1.99996C1.64634 9.33334 1.3072 9.19287 1.05715 8.94282C0.807102 8.69277 0.666626 8.35363 0.666626 8.00001C0.666626 7.64639 0.807102 7.30725 1.05715 7.0572C1.3072 6.80715 1.64634 6.66668 1.99996 6.66668H14.6666L11.0573 2.94268C10.8073 2.69264 10.6669 2.35356 10.6669 2.00001C10.6669 1.64646 10.8073 1.30738 11.0573 1.05734Z"/></svg>