<svg xmlns="http://www.w3.org/2000/svg" width="23" height="23" fill="none" viewBox="0 0 23 23"><path fill="#1E1E1E" fill-rule="evenodd" d="M0.373191 0.373191C0.612455 0.134225 0.936789 0 1.27495 0C1.61311 0 1.93744 0.134225 2.17671 0.373191L22.5939 20.7903C22.7192 20.9072 22.8198 21.048 22.8895 21.2046C22.9593 21.3611 22.9968 21.5301 22.9998 21.7014C23.0028 21.8728 22.9713 22.0429 22.9071 22.2018C22.8429 22.3607 22.7474 22.5051 22.6262 22.6262C22.5051 22.7474 22.3607 22.8429 22.2018 22.9071C22.0429 22.9713 21.8728 23.0028 21.7014 22.9998C21.5301 22.9968 21.3611 22.9593 21.2046 22.8895C21.048 22.8198 20.9072 22.7192 20.7903 22.5939L0.373191 2.17671C0.134225 1.93744 0 1.61311 0 1.27495C0 0.936789 0.134225 0.612455 0.373191 0.373191Z" clip-rule="evenodd"/><path fill="#1E1E1E" fill-rule="evenodd" d="M22.5938 0.373191C22.8328 0.612455 22.967 0.936789 22.967 1.27495C22.967 1.61311 22.8328 1.93744 22.5938 2.17671L2.1767 22.5939C1.9348 22.8193 1.61485 22.942 1.28426 22.9361C0.953672 22.9303 0.638252 22.7964 0.404453 22.5626C0.170655 22.3288 0.0367324 22.0134 0.0308995 21.6828C0.0250666 21.3522 0.147779 21.0322 0.373184 20.7903L20.7903 0.373191C21.0296 0.134225 21.3539 0 21.6921 0C22.0303 0 22.3546 0.134225 22.5938 0.373191Z" clip-rule="evenodd"/></svg>