<svg xmlns="http://www.w3.org/2000/svg" width="196" height="26" fill="none" viewBox="0 0 196 26"><path fill="#FD5" d="M14.2554 0.875488L17.3437 9.42517H27.3377L19.2524 14.7092L22.3407 23.2588L14.2554 17.9748L6.17012 23.2588L9.25843 14.7092L1.17312 9.42517H11.1671L14.2554 0.875488Z"/><path fill="#FD5" d="M14.2554 0.875488L17.3437 9.42517H27.3377L19.2524 14.7092L22.3407 23.2588L14.2554 17.9748L6.17012 23.2588L9.25843 14.7092L1.17312 9.42517H11.1671L14.2554 0.875488Z"/><path fill="#FD5" d="M181.614 0.875488L184.703 9.42517H194.696L186.611 14.7092L189.699 23.2588L181.614 17.9748L173.529 23.2588L176.617 14.7092L168.532 9.42517H178.526L181.614 0.875488Z"/><path fill="#FD5" d="M146.08 0.875488L149.168 9.42517H159.162L151.077 14.7092L154.165 23.2588L146.08 17.9748L137.994 23.2588L141.083 14.7092L132.997 9.42517H142.991L146.08 0.875488Z"/><path fill="#FD5" d="M104.813 0.875488L107.901 9.42517H117.895L109.81 14.7092L112.898 23.2588L104.813 17.9748L96.7276 23.2588L99.8159 14.7092L91.7306 9.42517H101.725L104.813 0.875488Z"/><path fill="#FD5" d="M60.1071 0.875488L63.1954 9.42517H73.1894L65.1041 14.7092L68.1924 23.2588L60.1071 17.9748L52.0218 23.2588L55.1101 14.7092L47.0248 9.42517H57.0188L60.1071 0.875488Z"/></svg>