<svg xmlns="http://www.w3.org/2000/svg" width="22" height="20" fill="none" viewBox="0 0 22 20"><path fill="#1E1E1E" d="M21 7.01224H16.21L11.82 0.442237C11.7285 0.306113 11.605 0.194577 11.4602 0.117457C11.3155 0.040337 11.154 0 10.99 0C10.826 0 10.6645 0.040337 10.5198 0.117457C10.375 0.194577 10.2515 0.306113 10.16 0.442237L5.77 7.01224H1C0.45 7.01224 0 7.46224 0 8.01224C0 8.10224 0.00999996 8.19224 0.04 8.28224L2.58 17.5522C2.81 18.3922 3.58 19.0122 4.5 19.0122H17.5C18.42 19.0122 19.19 18.3922 19.43 17.5522L21.97 8.28224L22 8.01224C22 7.46224 21.55 7.01224 21 7.01224ZM10.99 2.80224L13.8 7.01224H8.18L10.99 2.80224ZM11 15.0122C9.9 15.0122 9 14.1122 9 13.0122C9 11.9122 9.9 11.0122 11 11.0122C12.1 11.0122 13 11.9122 13 13.0122C13 14.1122 12.1 15.0122 11 15.0122Z"/></svg>