<svg width="27" height="28" viewBox="0 0 27 28" fill="none" xmlns="http://www.w3.org/2000/svg">
<path d="M12.3653 21.8147V22.9628C12.3653 23.2673 12.2468 23.5593 12.036 23.7747C11.8252 23.99 11.5393 24.1109 11.2411 24.1109H8.99291V25.2591C8.99291 25.8681 8.75605 26.4522 8.33442 26.8828C7.9128 27.3134 7.34095 27.5554 6.74468 27.5554H2.24823C1.65196 27.5554 1.08012 27.3134 0.658491 26.8828C0.236866 26.4522 0 25.8681 0 25.2591V22.29C0.000127334 21.681 0.237077 21.0971 0.658731 20.6665L9.35937 11.7799C8.82588 9.92966 8.87622 7.95482 9.50324 6.13542C10.1303 4.31601 11.3021 2.74439 12.8527 1.64339C14.4033 0.542398 16.2539 -0.0320918 18.1421 0.00138415C20.0302 0.0348601 21.8602 0.674603 23.3724 1.8299C24.8846 2.9852 26.0024 4.59741 26.5672 6.43795C27.1321 8.27848 27.1153 10.2539 26.5192 12.0842C25.9232 13.9144 24.7782 15.5065 23.2465 16.6348C21.7148 17.7631 19.8743 18.3703 17.9858 18.3702H15.7353V20.6665C15.7353 20.971 15.6169 21.2631 15.4061 21.4784C15.1953 21.6937 14.9094 21.8147 14.6112 21.8147H12.363H12.3653ZM20.2341 9.18512C20.8303 9.18512 21.4022 8.94319 21.8238 8.51256C22.2454 8.08192 22.4823 7.49785 22.4823 6.88884C22.4823 6.27983 22.2454 5.69576 21.8238 5.26513C21.4022 4.83449 20.8303 4.59256 20.2341 4.59256C19.6378 4.59256 19.0659 4.83449 18.6443 5.26513C18.2227 5.69576 17.9858 6.27983 17.9858 6.88884C17.9858 7.49785 18.2227 8.08192 18.6443 8.51256C19.0659 8.94319 19.6378 9.18512 20.2341 9.18512V9.18512Z" fill="black"/>
</svg>
